<svg width="157" height="28" viewBox="0 0 157 28" fill="none" xmlns="http://www.w3.org/2000/svg">
<g clip-path="url(#clip0_119_18)">
<rect width="28" height="28" rx="14" fill="#1F2327"/>
<path d="M19.7651 21C21.5587 21 23 19.5765 23 17.8402C23 16.1039 21.5587 14.6805 19.7651 14.6805C18.0676 14.571 17.331 15.9788 16.242 16.9173C15.6335 17.3866 14.8648 17.6525 14 17.6525C13.1352 17.6525 12.3826 17.3866 11.758 16.9173C10.6851 15.9944 9.9484 14.571 8.23488 14.6805C6.44128 14.6805 5 16.1039 5 17.8402C5 19.5765 6.44128 21 8.23488 21H19.7651Z" fill="#FCFCFD"/>
<path d="M19.7651 7C21.5587 7 23 8.42347 23 10.1598C23 11.8961 21.5587 13.3195 19.7651 13.3195C18.0676 13.429 17.331 12.0212 16.242 11.0827C15.6335 10.6134 14.8648 10.3475 14 10.3475C13.1352 10.3475 12.3826 10.6134 11.758 11.0827C10.6851 12.0056 9.9484 13.429 8.23488 13.3195C6.44128 13.3195 5 11.8961 5 10.1598C5 8.42347 6.44128 7 8.23488 7H19.7651Z" fill="#FCFCFD"/>
<path d="M39.1951 12.697C38.489 12.697 37.8837 12.9492 37.3962 13.4368C36.9086 13.9244 36.6732 14.6137 36.6732 15.4712C36.6732 16.3286 36.9254 17.0179 37.413 17.5223C37.9006 18.0267 38.5058 18.2789 39.2119 18.2789C39.8508 18.2789 40.3552 18.1108 40.7251 17.7913C41.095 17.4551 41.364 17.0684 41.4985 16.6144L43.8523 17.4046C43.6169 18.3125 43.0789 19.1027 42.2719 19.7584C41.4649 20.4141 40.4393 20.7503 39.2119 20.7503C37.7324 20.7503 36.4883 20.246 35.4963 19.254C34.4876 18.2453 34 17.0011 34 15.488C34 13.9748 34.4876 12.7139 35.4795 11.7219C36.4715 10.73 37.682 10.2256 39.1447 10.2256C40.4057 10.2256 41.448 10.545 42.2551 11.2007C43.0621 11.8564 43.5833 12.6466 43.8018 13.5713L41.3976 14.3783C41.0782 13.2687 40.3384 12.697 39.1951 12.697Z" fill="#1F2327"/>
<path d="M52.8136 10.5112H54.8143V12.8986H52.8136V17.0514C52.8136 17.4717 52.9145 17.7575 53.0994 17.9424C53.2844 18.1106 53.587 18.2114 53.9905 18.2114C54.3604 18.2114 54.6294 18.1778 54.8143 18.1274V20.3466C54.4277 20.5148 53.9233 20.582 53.3012 20.582C52.3261 20.582 51.5695 20.313 50.9979 19.7582C50.4262 19.2202 50.1572 18.4636 50.1572 17.5053V12.8818H48.3583V10.4944H48.8626C49.367 10.4944 49.7369 10.3431 50.0059 10.0572C50.2749 9.77143 50.3926 9.38474 50.3926 8.91398V7.51853H52.8136V10.5112Z" fill="#1F2327"/>
<path d="M56.1087 8.91412C56.1087 8.46018 56.2768 8.05668 56.5962 7.73724C56.9157 7.40098 57.3024 7.24966 57.7731 7.24966C58.2439 7.24966 58.6138 7.41779 58.95 7.73724C59.2695 8.05668 59.4376 8.46018 59.4376 8.93094C59.4376 9.36807 59.2695 9.75476 58.95 10.0742C58.6306 10.3936 58.2439 10.5618 57.7731 10.5618C57.3024 10.5618 56.9325 10.3936 56.5962 10.0742C56.2768 9.75476 56.1087 9.36807 56.1087 8.93094V8.91412ZM59.1182 20.4309H56.4281V12.0077H59.1182V20.4309Z" fill="#1F2327"/>
<path d="M44.4071 8.91412C44.4071 8.46018 44.5753 8.05668 44.8947 7.73724C45.2141 7.40098 45.6008 7.24966 46.0716 7.24966C46.5424 7.24966 46.9122 7.41779 47.2485 7.73724C47.5679 8.05668 47.7361 8.46018 47.7361 8.93094C47.7361 9.36807 47.5679 9.75476 47.2485 10.0742C46.929 10.3936 46.5424 10.5618 46.0716 10.5618C45.6008 10.5618 45.231 10.3936 44.8947 10.0742C44.5753 9.75476 44.4071 9.36807 44.4071 8.93094V8.91412ZM47.4166 20.4309H44.7266V12.0077H47.4166V20.4309Z" fill="#1F2327"/>
<path d="M60.6147 20.4308V18.077L65.3223 12.8314H60.7492V10.5112H68.7521V12.7473L63.91 18.0938H68.8361V20.4308H60.6147Z" fill="#1F2327"/>
<path d="M76.5194 16.9337L78.7555 17.6062C78.4865 18.5141 77.9653 19.2707 77.1751 19.8591C76.3849 20.4476 75.4098 20.7502 74.2329 20.7502C72.8038 20.7502 71.5933 20.2626 70.6013 19.3043C69.6094 18.346 69.105 17.0514 69.105 15.4374C69.105 13.8233 69.5926 12.6465 70.5509 11.6713C71.5092 10.6962 72.6693 10.2086 73.9807 10.2086C75.5107 10.2086 76.7212 10.6626 77.5786 11.5873C78.4529 12.4951 78.8732 13.7561 78.8732 15.3533C78.8732 15.4542 78.8732 15.5887 78.8732 15.7232C78.8732 15.8577 78.8732 15.9586 78.8732 16.0426V16.1771H71.7446C71.7782 16.816 72.0304 17.354 72.518 17.7912C73.0056 18.2283 73.5772 18.43 74.2497 18.43C75.393 18.43 76.1496 17.9256 76.5026 16.9169L76.5194 16.9337ZM71.8119 14.3445H76.2504C76.2168 13.7897 76.0319 13.3358 75.662 12.9491C75.2921 12.5792 74.7541 12.3775 74.0311 12.3775C73.3923 12.3775 72.8543 12.5792 72.4507 12.9827C72.0472 13.3862 71.8287 13.8402 71.8119 14.3277V14.3445Z" fill="#1F2327"/>
<path d="M83.026 14.7313V20.4477H80.3359V10.5282H82.9419V11.7555C83.2277 11.2679 83.6312 10.898 84.1524 10.6458C84.6736 10.3937 85.2284 10.2591 85.8001 10.2591C86.977 10.2591 87.868 10.629 88.4733 11.352C89.0786 12.0749 89.398 13.0333 89.398 14.1933V20.4477H86.708V14.6641C86.708 14.0756 86.5566 13.5881 86.254 13.235C85.9514 12.8651 85.4974 12.697 84.8754 12.697C84.3037 12.697 83.8666 12.8987 83.5303 13.2854C83.1941 13.6721 83.026 14.1597 83.026 14.765V14.7313Z" fill="#1F2327"/>
<path d="M100.276 10.3935V13.1004C100.007 13.0499 99.7378 13.0163 99.4688 13.0163C98.6954 13.0163 98.0901 13.2349 97.6194 13.672C97.1486 14.1091 96.9132 14.8321 96.9132 15.824V20.3635H94.2232V10.444H96.8292V11.9235C97.3167 10.8811 98.2582 10.3767 99.6537 10.3767C99.805 10.3767 100.007 10.3767 100.276 10.4103V10.3935Z" fill="#1F2327"/>
<path d="M108.06 16.8497L110.296 17.5222C110.027 18.4301 109.506 19.1867 108.716 19.7751C107.926 20.3636 106.95 20.6662 105.774 20.6662C104.344 20.6662 103.134 20.1786 102.142 19.2203C101.15 18.262 100.646 16.9674 100.646 15.3534C100.646 13.7394 101.133 12.5625 102.092 11.5873C103.05 10.6122 104.21 10.1246 105.521 10.1246C107.051 10.1246 108.262 10.5786 109.119 11.5033C109.994 12.4112 110.414 13.6721 110.414 15.2693C110.414 15.3702 110.414 15.5047 110.414 15.6392C110.414 15.7737 110.414 15.8746 110.414 15.9586V16.0932H103.285C103.319 16.732 103.571 17.27 104.059 17.7072C104.546 18.1443 105.118 18.3461 105.79 18.3461C106.934 18.3461 107.69 17.8417 108.043 16.8329L108.06 16.8497ZM103.352 14.2606H107.791C107.757 13.7057 107.572 13.2518 107.203 12.8651C106.833 12.4952 106.295 12.2935 105.572 12.2935C104.933 12.2935 104.395 12.4952 103.991 12.8987C103.588 13.3022 103.369 13.7562 103.352 14.2438V14.2606Z" fill="#1F2327"/>
<path d="M114.18 20.3635H111.49V10.444H114.045V11.6545C114.298 11.2006 114.701 10.8307 115.256 10.5617C115.811 10.2927 116.366 10.1582 116.954 10.1582C118.4 10.1582 119.375 10.713 119.896 11.8058C120.602 10.6962 121.662 10.1582 123.04 10.1582C124.049 10.1582 124.906 10.4776 125.596 11.0997C126.285 11.7218 126.638 12.6801 126.638 13.9242V20.3635H124.032V14.4791C124.032 13.9074 123.881 13.4535 123.595 13.1172C123.309 12.781 122.872 12.596 122.267 12.596C121.712 12.596 121.275 12.781 120.939 13.1677C120.602 13.5375 120.434 14.0083 120.434 14.5631V20.3803H117.778V14.4959C117.778 13.9242 117.627 13.4703 117.341 13.134C117.055 12.7978 116.601 12.6128 116.029 12.6128C115.458 12.6128 115.021 12.7978 114.684 13.1677C114.348 13.5375 114.18 14.0083 114.18 14.5631V20.3803V20.3635Z" fill="#1F2327"/>
<path d="M129.194 11.621C130.186 10.629 131.43 10.1246 132.909 10.1246C134.389 10.1246 135.65 10.629 136.625 11.621C137.617 12.6129 138.104 13.8739 138.104 15.387C138.104 16.9002 137.617 18.1611 136.625 19.1531C135.633 20.145 134.389 20.6494 132.909 20.6494C131.43 20.6494 130.169 20.145 129.194 19.1531C128.202 18.1611 127.714 16.9002 127.714 15.387C127.714 13.8739 128.202 12.6129 129.194 11.621ZM131.127 17.4718C131.615 17.9762 132.22 18.2116 132.909 18.2116C133.599 18.2116 134.204 17.9594 134.691 17.4718C135.179 16.9842 135.431 16.2781 135.431 15.387C135.431 14.4959 135.179 13.8066 134.691 13.3022C134.204 12.7978 133.599 12.5625 132.909 12.5625C132.22 12.5625 131.615 12.8147 131.127 13.3022C130.64 13.7898 130.387 14.4959 130.387 15.387C130.387 16.2781 130.64 16.9674 131.127 17.4718Z" fill="#1F2327"/>
<path d="M143.081 10.4272H145.082V12.8146H143.081V16.9674C143.081 17.3877 143.182 17.6735 143.367 17.8584C143.552 18.0266 143.854 18.1274 144.258 18.1274C144.628 18.1274 144.897 18.0938 145.082 18.0434V20.2627C144.695 20.4308 144.191 20.4981 143.568 20.4981C142.593 20.4981 141.837 20.229 141.265 19.6742C140.693 19.1362 140.424 18.3796 140.424 17.4213V12.7978H138.626V10.4104H139.13C139.634 10.4104 140.004 10.2591 140.273 9.97328C140.542 9.68746 140.66 9.30077 140.66 8.83001V7.43455H143.081V10.4272Z" fill="#1F2327"/>
<path d="M153.673 16.8497L155.909 17.5222C155.64 18.4301 155.119 19.1867 154.329 19.7751C153.538 20.3636 152.563 20.6662 151.386 20.6662C149.957 20.6662 148.747 20.1786 147.755 19.2203C146.763 18.262 146.258 16.9674 146.258 15.3534C146.258 13.7394 146.746 12.5625 147.704 11.5873C148.663 10.6122 149.823 10.1246 151.134 10.1246C152.664 10.1246 153.875 10.5786 154.732 11.5033C155.606 12.4112 156.027 13.6721 156.027 15.2693C156.027 15.3702 156.027 15.5047 156.027 15.6392C156.027 15.7737 156.027 15.8746 156.027 15.9586V16.0932H148.898C148.932 16.732 149.184 17.27 149.671 17.7072C150.159 18.1443 150.731 18.3461 151.403 18.3461C152.546 18.3461 153.303 17.8417 153.656 16.8329L153.673 16.8497ZM148.965 14.2606H153.404C153.37 13.7057 153.185 13.2518 152.815 12.8651C152.446 12.4952 151.908 12.2935 151.185 12.2935C150.546 12.2935 150.008 12.4952 149.604 12.8987C149.201 13.3022 148.982 13.7562 148.965 14.2438V14.2606Z" fill="#1F2327"/>
</g>
<defs>
<clipPath id="clip0_119_18">
<rect width="157" height="28" fill="white"/>
</clipPath>
</defs>
</svg>
