<svg width="20" height="20" viewBox="0 0 20 20" fill="none" xmlns="http://www.w3.org/2000/svg">
<path fill-rule="evenodd" clip-rule="evenodd" d="M10 5C10.4602 5 10.8333 5.3731 10.8333 5.83333V9.16667H14.1667C14.6269 9.16667 15 9.53976 15 10C15 10.4602 14.6269 10.8333 14.1667 10.8333H10.8333V14.1667C10.8333 14.6269 10.4602 15 10 15C9.53976 15 9.16667 14.6269 9.16667 14.1667V10.8333H5.83333C5.3731 10.8333 5 10.4602 5 10C5 9.53976 5.3731 9.16667 5.83333 9.16667H9.16667V5.83333C9.16667 5.3731 9.53976 5 10 5Z" fill="#1F2327"/>
</svg>
